<svg height="512" viewBox="0 0 512 512" width="512" xmlns="http://www.w3.org/2000/svg"><path d="m336 457.52v18.98a10 10 0 0 1 -10 10h-280a10 10 0 0 1 -10-10v-18.98a89.992 89.992 0 0 1 57.96-84.1l47.04-17.92c9.18 12.47 45 19.287 45 19.287s35.82-6.817 45-19.287l47.04 17.92a89.992 89.992 0 0 1 57.96 84.1z" fill="#ffc980"/><path d="m261 295.5h-150l-40-79-10-21.108 10-19.892h230l10 19.892-10 21.108z" fill="#52c0c6"/><path d="m66 137.026v159.213a40 40 0 0 0 40 40h159.951a40 40 0 0 0 40-39.974l.124-182.8c0-50-174.481-91.556-217.163-40.142a99.722 99.722 0 0 0 -22.912 63.703z" fill="#ca5935"/><path d="m141 319h90v80h-90z" fill="#ffc980"/><path d="m141 322v77h30v-30.591a20.14 20.14 0 0 1 18.836-19.965 49.876 49.876 0 0 0 18.524-5.124l22.64-11.32v-10z" fill="#f9bc73"/><path d="m86 137.029v159.21a40 40 0 0 0 40 40h-20a40 40 0 0 1 -40-40v-159.21c0-23.25 20-23.25 20 0z" fill="#b24426"/><path d="m56 215.5h10a20 20 0 0 1 20 20 20 20 0 0 1 -20 20h-10a0 0 0 0 1 0 0v-40a0 0 0 0 1 0 0z" fill="#ffc980" transform="matrix(-1 0 0 -1 142 471)"/><path d="m69 235.5a20.024 20.024 0 0 0 17 19.78v.22h-10a20 20 0 0 1 0-40h10v.22a20 20 0 0 0 -17 19.78z" fill="#f9bc73"/><path d="m252.833 311.084-44.472 22.236a50 50 0 0 1 -44.722 0l-44.472-22.236a60 60 0 0 1 -33.167-53.666v-41.918l10-55.483c66.667-63.165 113.333-63.165 180 0l10 55.483v41.918a60 60 0 0 1 -33.167 53.666z" fill="#ffc980"/><path d="m196 118.118q-45 4.26-90 46.9v137.11a59.985 59.985 0 0 1 -20-44.71v-92.4q55.005-52.11 110-46.9z" fill="#f9bc73"/><path d="m286 215.5h10a20 20 0 0 1 20 20 20 20 0 0 1 -20 20h-10a0 0 0 0 1 0 0v-40a0 0 0 0 1 0 0z" fill="#ffc980"/><path d="m286 215.5-16.877 13.5a5 5 0 0 1 -8.123-3.9v-60.08h25z" fill="#ca5935"/><path d="m286 215.5h10v40h-10z" fill="#f9bc73"/><path d="m213.745 115.017h80a0 0 0 0 1 0 0v60a0 0 0 0 1 0 0h-30a50 50 0 0 1 -50-50v-10a0 0 0 0 1 0 0z" fill="#787780"/><path d="m150.7 174.472-64.7 10.545v-30a60 60 0 0 1 60-60h72.712l-1.687 11.811a80 80 0 0 1 -66.325 67.644z" fill="#787780"/><path d="m86 215.5 16.877 13.5a5 5 0 0 0 8.123-3.9v-60.08h-25z" fill="#ca5935"/><circle cx="226" cy="237.798" fill="#575759" r="7.5"/><circle cx="146" cy="237.798" fill="#575759" r="7.5"/><path d="m257.953 271a7.5 7.5 0 0 1 -6.469-11.284l28.04-48a7.5 7.5 0 1 1 12.952 7.566l-28.04 48a7.5 7.5 0 0 1 -6.483 3.718z" fill="#f1e8dc"/><path d="m114.047 271a7.5 7.5 0 0 1 -6.483-3.718l-28.04-48a7.5 7.5 0 0 1 12.952-7.566l28.04 48a7.5 7.5 0 0 1 -6.469 11.284z" fill="#f1e8dc"/><path d="m249.436 333.48-2.592.931a180 180 0 0 1 -121.631.015l-2.643-.948a22 22 0 0 1 -14.57-20.707v-40.942a10 10 0 0 1 8.479-9.884l51.274-7.888a120.035 120.035 0 0 1 36.494 0l51.274 7.888a10 10 0 0 1 8.479 9.884v40.946a22 22 0 0 1 -14.564 20.705z" fill="#6bd4e0"/><path d="m196.01 344.72a180.065 180.065 0 0 1 -70.8-10.29l-2.64-.95a22 22 0 0 1 -14.57-20.71v-40.94a9.992 9.992 0 0 1 8.48-9.88l11.52-1.77v52.59a22 22 0 0 0 14.57 20.71l2.64.95a179.675 179.675 0 0 0 50.8 10.29z" fill="#56cdd3"/><path d="m201.03 26.441a119.92 119.92 0 0 0 -36.93 10.87l-16.36 7.86a99.99 99.99 0 0 0 -56.74 90.15v50.41q-15.33 4.14-30 9.66v-60.07a99.99 99.99 0 0 1 56.74-90.15l16.36-7.86a120.009 120.009 0 0 1 66.93-10.87z" fill="#56cdd3"/><path d="m311 195.392c-74.184-29.458-170.851-29.867-250 0v-60.07a100 100 0 0 1 56.735-90.157l16.365-7.853a120 120 0 0 1 103.855.01l16.327 7.839a100 100 0 0 1 56.718 90.148z" fill="#6bd4e0"/><circle cx="186" cy="161.541" fill="#e6f0f6" r="40"/><circle cx="186" cy="161.541" fill="#acd1e4" r="15"/><path d="m141 355.5v16.95h-30l19.85-13.08z" fill="#f9bc73"/><path d="m336 457.52v18.98a10 10 0 0 1 -10 10h-280a10 10 0 0 1 -10-10v-18.98a89.992 89.992 0 0 1 57.96-84.1l36.89-14.05c9.18 12.47 30.41 21.2 55.15 21.2s45.97-8.73 55.15-21.2l36.89 14.05a89.992 89.992 0 0 1 57.96 84.1z" fill="#6bd4e0"/><path d="m336 471.5v5a10 10 0 0 1 -10 10h-280a10 10 0 0 1 -10-10v-18.98a89.976 89.976 0 0 1 30-67.08v71.06a10 10 0 0 0 10 10z" fill="#56cdd3"/><path d="m93.5 456.5v30h-15v-30a7.5 7.5 0 0 1 15 0z" fill="#52c0c6"/><path d="m293.5 456.5v30h-15v-30a7.5 7.5 0 0 1 15 0z" fill="#52c0c6"/><path d="m436 179.5h30v60h-30z" fill="#84828e"/><path d="m473.5 175.377v-25.093a100 100 0 0 0 -33.564-74.741l-3.114-2.768a5 5 0 0 0 -8.322 3.737v98.865a10 10 0 0 0 10 10h25a10 10 0 0 0 10-10z" fill="#e5eff5"/><path d="m473.5 150.281v25.1a10 10 0 0 1 -10 10v-35.1a100 100 0 0 0 -33.56-74.74l-1.07-.95a5.012 5.012 0 0 1 7.95-1.82l3.12 2.77a100 100 0 0 1 33.56 74.74z" fill="#aacfe2"/><path d="m476 351.5v-110a10 10 0 0 0 -10-10h-30a10 10 0 0 0 -10 10v110a25 25 0 0 0 25 25 25 25 0 0 0 25-25z" fill="#707077"/><path d="m458.49 375.36a.142.142 0 0 0 -.06.02c-.38.11-.77.23-1.16.32l-.04.02c-.4.1-.79.19-1.19.27s-.8.15-1.2.22l-1.46.17c-.29.03-.57.06-.85.07l-.47.03-1.06.02a25 25 0 0 1 -25-25v-110a10 10 0 0 1 10-10h5v120a25.038 25.038 0 0 0 17.49 23.86z" fill="#66666b"/><path d="m381 456.5v-105h-40v105a15 15 0 0 0 0 30h40a15 15 0 0 0 0-30z" fill="#aacfe2"/><path d="m341 486.5a15 15 0 0 1 0-30v-105h10v105.54a15.047 15.047 0 0 0 -11 14.46c0 6.9 4.66 13.25 11 15z" fill="#93becf"/><path d="m393.5 406.5h-65v-135a10 10 0 0 1 10-10h45a10 10 0 0 1 10 10z" fill="#e5eff5"/><path d="m328.5 396.5h65v10h-65z" fill="#aacfe2"/><path d="m348.5 261.5a10 10 0 0 0 -10 10v135h-10v-135a10 10 0 0 1 10-10z" fill="#aacfe2"/><path d="m361 256a7.5 7.5 0 0 1 -7.5-7.5v-80a7.5 7.5 0 0 1 15 0v80a7.5 7.5 0 0 1 -7.5 7.5z" fill="#84828e"/><path d="m383.5 261.5h-45v-20a10 10 0 0 1 10-10h25a10 10 0 0 1 10 10z" fill="#aacfe2"/><rect fill="#e5eff5" height="30" rx="15" width="90" x="316" y="399.5"/><path d="m341 429.5h-10a15 15 0 0 1 0-30h10a15 15 0 0 0 0 30z" fill="#aacfe2"/><path d="m358.5 231.5a10 10 0 0 0 -10 10v20h-10v-20a10 10 0 0 1 10-10z" fill="#93becf"/><g fill="#84828e"><path d="m356 317.5a7.5 7.5 0 0 1 -7.5 7.5h-20v-15h20a7.5 7.5 0 0 1 7.5 7.5z"/><path d="m366 343.5a7.5 7.5 0 0 1 -7.5 7.5h-30v-15h30a7.5 7.5 0 0 1 7.5 7.5z"/><path d="m356 369.5a7.5 7.5 0 0 1 -7.5 7.5h-20v-15h20a7.5 7.5 0 0 1 7.5 7.5z"/><path d="m366 291.5a7.5 7.5 0 0 1 -7.5 7.5h-30v-15h30a7.5 7.5 0 0 1 7.5 7.5z"/></g><path d="m328.5 284h10v15h-10z" fill="#707077"/><path d="m328.5 310h10v15h-10z" fill="#707077"/><path d="m328.5 336h10v15h-10z" fill="#707077"/><path d="m328.5 362h10v15h-10z" fill="#707077"/></svg>