<?xml version="1.0" encoding="iso-8859-1"?>
<!-- Generator: Adobe Illustrator 19.0.0, SVG Export Plug-In . SVG Version: 6.00 Build 0)  -->
<svg version="1.1" id="Capa_1" xmlns="http://www.w3.org/2000/svg" xmlns:xlink="http://www.w3.org/1999/xlink" x="0px" y="0px"
	 viewBox="0 0 512 512" style="enable-background:new 0 0 512 512;" xml:space="preserve">
<rect x="171.277" y="139.106" style="fill:#B7E5FF;" width="16.95" height="59.324"/>
<g>
	<path style="fill:#2195F2;" d="M459.397,410.302h-34.942L383.123,96.181V3.509h-16.95v93.223l41.188,313.57h-32.713v16.95h33.899
		v33.899c0,28.086,22.763,50.849,50.849,50.849s50.849-22.763,50.849-50.849S487.482,410.302,459.397,410.302z M459.397,495.05
		c-18.721,0-33.899-15.178-33.899-33.899s15.178-33.899,33.899-33.899s33.899,15.178,33.899,33.899S478.117,495.05,459.397,495.05z"
		/>
	<path style="fill:#2195F2;" d="M349.223,96.181l-41.332,314.121H272.95c-28.086,0-50.849,22.763-50.849,50.849
		S244.864,512,272.95,512s50.849-22.763,50.849-50.849v-33.899h33.899v-16.95h-32.713l41.112-312.459l0.076-94.334h-16.95
		L349.223,96.181L349.223,96.181z M272.95,495.05c-18.721,0-33.899-15.178-33.899-33.899s15.178-33.899,33.899-33.899
		s33.899,15.178,33.899,33.899S291.671,495.05,272.95,495.05z"/>
</g>
<g>
	<rect x="162.802" y="198.43" style="fill:#B7E5FF;" width="33.899" height="305.095"/>
	<path style="fill:#B7E5FF;" d="M173.735,14.467c-23.374,23.247-36.476,54.875-36.383,87.833v53.756h50.849V0L173.735,14.467z"/>
	<path style="fill:#B7E5FF;" d="M281.425,20.458v58.722c0,11.619,1.873,23.17,5.551,34.196l0,0c7.399,22.196,7.399,46.205,0,68.401
		l0,0c-3.678,11.026-5.551,22.577-5.551,34.205v168.895h-33.899V215.982c0-11.619-1.873-23.17-5.551-34.196l0,0
		c-7.399-22.196-7.399-46.205,0-68.401l0,0c3.678-11.026,5.551-22.577,5.551-34.205V45.883L281.425,20.458z"/>
	<polygon style="fill:#B7E5FF;" points="484.821,384.877 450.922,384.877 450.922,113.682 417.022,37.408 442.447,20.458 
		484.821,113.682 	"/>
</g>
<g>
	<rect x="450.947" y="240.805" style="fill:#3F51B4;" width="33.899" height="16.95"/>
	<rect x="450.947" y="274.704" style="fill:#3F51B4;" width="33.899" height="16.95"/>
	<rect x="450.947" y="308.603" style="fill:#3F51B4;" width="33.899" height="16.95"/>
	<rect x="256.025" y="122.157" style="fill:#3F51B4;" width="16.95" height="16.95"/>
	<rect x="256.025" y="156.056" style="fill:#3F51B4;" width="16.95" height="16.95"/>
</g>
<rect x="61.078" y="3.509" style="fill:#E01717;" width="16.95" height="152.547"/>
<path style="fill:#FEC007;" d="M137.352,512h-16.95v-8.475c0-4.678-3.797-8.475-8.475-8.475H27.179
	c-14.043,0-25.425-11.382-25.425-25.425s11.382-25.425,25.425-25.425h84.749c4.678,0,8.475-3.797,8.475-8.475
	s-3.797-8.475-8.475-8.475H27.179c-14.043,0-25.425-11.382-25.425-25.425s11.382-25.425,25.425-25.425h84.749
	c4.678,0,8.475-3.797,8.475-8.475s-3.797-8.475-8.475-8.475H27.179c-14.043,0-25.425-11.382-25.425-25.425
	c0-14.043,11.382-25.425,25.425-25.425h84.749c4.678,0,8.475-3.797,8.475-8.475s-3.797-8.475-8.475-8.475H27.179
	c-14.043,0-25.425-11.382-25.425-25.425c0-14.043,11.382-25.425,25.425-25.425h84.749c4.678,0,8.475-3.797,8.475-8.475
	s-3.797-8.475-8.475-8.475H86.503c-14.043,0-25.425-11.382-25.425-25.425v-25.425h16.95v25.425c0,4.678,3.797,8.475,8.475,8.475
	h25.425c14.043,0,25.425,11.382,25.425,25.425s-11.382,25.425-25.425,25.425H27.179c-4.678,0-8.475,3.797-8.475,8.475
	c0,4.678,3.797,8.475,8.475,8.475h84.749c14.043,0,25.425,11.382,25.425,25.425s-11.382,25.425-25.425,25.425H27.179
	c-4.678,0-8.475,3.797-8.475,8.475c0,4.678,3.797,8.475,8.475,8.475h84.749c14.043,0,25.425,11.382,25.425,25.425
	s-11.382,25.425-25.425,25.425H27.179c-4.678,0-8.475,3.797-8.475,8.475s3.797,8.475,8.475,8.475h84.749
	c14.043,0,25.425,11.382,25.425,25.425s-11.382,25.425-25.425,25.425H27.179c-4.678,0-8.475,3.797-8.475,8.475
	s3.797,8.475,8.475,8.475h84.749c14.043,0,25.425,11.382,25.425,25.425l0,0V512z"/>
<g>
</g>
<g>
</g>
<g>
</g>
<g>
</g>
<g>
</g>
<g>
</g>
<g>
</g>
<g>
</g>
<g>
</g>
<g>
</g>
<g>
</g>
<g>
</g>
<g>
</g>
<g>
</g>
<g>
</g>
</svg>
