<svg id="Layer_1" enable-background="new 0 0 512 512" viewBox="0 0 512 512" xmlns="http://www.w3.org/2000/svg"><g><g><path clip-rule="evenodd" d="m79.849 60.87h407.218v321.702h-407.218z" fill="#e8f0fe" fill-rule="evenodd"/></g><g><path clip-rule="evenodd" d="m55.416 29.834h456.084v31.036h-456.084z" fill="#64b9fc" fill-rule="evenodd"/></g><g><path clip-rule="evenodd" d="m190.7 247.579 46.364 26.76 46.394 26.79 46.365-26.79 46.393-26.76v-53.578-53.549l-46.393-26.789-46.365-26.76-46.394 26.76-46.364 26.789v53.549z" fill="#64b9fc" fill-rule="evenodd"/></g><g><path clip-rule="evenodd" d="m376.216 140.452-46.393-26.789-46.365-26.76-46.394 26.76-46.364 26.789 46.364 26.789 46.394 26.76 46.365-26.76z" fill="#1785f8" fill-rule="evenodd"/></g><g><path clip-rule="evenodd" d="m329.823 167.241-46.365 26.76v107.128l46.365-26.79 46.393-26.76v-53.578-53.549z" fill="#31a7fb" fill-rule="evenodd"/></g><g><path clip-rule="evenodd" d="m27.609 260.61c-14.776 2.269-27.109 12.159-27.109 27.109v94.183c0 10.035 8.203 18.238 18.208 18.238 10.035 0 18.238-8.202 18.238-18.238v-10.529h91.159v-66.638l5.846 2.24 13.351 5.148c9.657 3.723 19.895 1.89 27.662-4.974l22.513-19.838 45.492-40.111c7.504-6.632 8.232-18.208 1.6-25.713-6.632-7.534-18.208-8.261-25.713-1.629l-59.774 52.677c-48.284-18.585-79.058-20.04-131.473-11.925z" fill="#05e39c" fill-rule="evenodd"/></g><g><path clip-rule="evenodd" d="m36.946 371.374h91.159v110.792h-91.159z" fill="#c86f5c" fill-rule="evenodd"/></g><g><path d="m26.067 301.536c0-2.996 2.443-5.41 5.439-5.41s5.439 2.414 5.439 5.41v54.451h-10.878z" fill="#0ed290"/></g><g><path d="m77.086 414.684c0-2.996 2.443-5.439 5.439-5.439s5.439 2.443 5.439 5.439v67.482h-10.878z" fill="#ba5d4f"/></g><g><path clip-rule="evenodd" d="m103.962 221.925h-42.845v39.936c0 11.78 9.628 21.408 21.408 21.408 11.78 0 21.437-9.628 21.437-21.408z" fill="#ffb09e" fill-rule="evenodd"/></g><g><path clip-rule="evenodd" d="m83.921 250.604c26.411 0 47.994-26.76 47.994-59.57s-21.583-59.57-47.994-59.57c-26.44 0-47.994 26.76-47.994 59.57.001 32.81 21.554 59.57 47.994 59.57z" fill="#ffcebf" fill-rule="evenodd"/></g><g><path clip-rule="evenodd" d="m36.393 199.528c-41.507-33.101-8.435-94.474 49.71-91.624 36.33 1.774 67.016 23.706 60.152 63.817-3.432 14.427-8.522 23.531-14.893 28.418.233-27.051-6.021-42.263-13.584-51.31-8.639 9.861-19.895 16.143-34.41 17.918-35.776-5.003-50.174 6.922-46.975 32.781z" fill="#407093" fill-rule="evenodd"/></g><g><path clip-rule="evenodd" d="m.5 355.987v25.916c0 10.035 8.203 18.238 18.208 18.238 10.035 0 18.238-8.202 18.238-18.238v-10.529-15.387z" fill="#ffcebf" fill-rule="evenodd"/></g><g><path clip-rule="evenodd" d="m194.336 241.471 25.335 26.265 23.299-20.536c7.504-6.632 8.232-18.208 1.6-25.713-6.632-7.534-18.208-8.261-25.713-1.629z" fill="#ffcebf" fill-rule="evenodd"/></g><g><path clip-rule="evenodd" d="m334.011 233.24h95.58c13.671 0 24.869 11.198 24.869 24.869v50.32c0 13.7-11.198 24.869-24.869 24.869h-95.58c-13.671 0-24.869-11.17-24.869-24.869v-50.32c0-13.671 11.198-24.869 24.869-24.869z" fill="#fd4755" fill-rule="evenodd"/></g><g><path clip-rule="evenodd" d="m362.546 254.531 24.898 14.369 24.899 14.369-24.899 14.369-24.898 14.369v-28.738z" fill="#e8f0fe" fill-rule="evenodd"/></g><g><path clip-rule="evenodd" d="m79.849 60.87h407.218v17.918h-407.218z" fill="#cce4ff" fill-rule="evenodd"/></g><g><path clip-rule="evenodd" d="m429.562 233.24h.029c13.671 0 24.869 11.198 24.869 24.869v50.32c0 13.7-11.198 24.869-24.869 24.869h-.029c8.377-4.421 14.107-13.235 14.107-23.328v-53.404c0-10.092-5.73-18.905-14.107-23.326z" fill="#e41f2d" fill-rule="evenodd"/></g></g></svg>