<svg height="512" viewBox="0 0 96 96" width="512" xmlns="http://www.w3.org/2000/svg"><g id="Surgeon"><path d="m88.05 95-5.18-14.66a18.68 18.68 0 0 0 -14-12.69l-20.64-4-20.64 4a18.69 18.69 0 0 0 -14 12.69l-5.12 14.66z" fill="#2f7c6d"/><path d="m66.83 95h21.22l-5.18-14.66a18.68 18.68 0 0 0 -14-12.69l-2.07-.4z" fill="#2f5e6d"/><path d="m29.33 67.32-1.71.33a18.69 18.69 0 0 0 -14 12.69l-5.15 14.66h20.86z" fill="#2f5e6d"/><path d="m64 75.13v11.07a2.8 2.8 0 0 1 -2.8 2.8h-26.4a2.8 2.8 0 0 1 -2.8-2.8v-11a2.81 2.81 0 0 1 2.27-2.76c1.85-.35 2.76-.7 3.89-.07l8.74 4.86a2.8 2.8 0 0 0 2.72 0l8.74-4.86a2.82 2.82 0 0 1 1.89-.31l1.48.28a2.81 2.81 0 0 1 2.27 2.79z" fill="#4d9586"/><path d="m61.28 66.18-13.02 7.26-13.03-7.26 4.12-.79v-11.49h17.81v11.49z" fill="#f4aa88"/><path d="m57.16 53.9v8.15a25.56 25.56 0 0 1 -17.81 0v-8.15z" fill="#f47d74"/><path d="m72.74 38h-49a4.72 4.72 0 0 1 0-9.43h49a4.72 4.72 0 1 1 0 9.43z" fill="#f47d74"/><path d="m70.16 27.8v9.94a21.91 21.91 0 1 1 -43.81 0v-9.94a21.91 21.91 0 1 1 43.81 0z" fill="#f4cda6"/><path d="m26.55 40.67a21.89 21.89 0 0 0 43.4 0l-17.58-3.9a19 19 0 0 0 -8.23 0z" fill="#70c2ef"/><path d="m70.16 27.8v4.2a5.22 5.22 0 0 1 -1.26-.38c-7.53-3.44-12.27-6.18-20.64-6.18s-13.12 2.73-20.64 6.18a5.29 5.29 0 0 1 -1.27.38v-4.2a21.91 21.91 0 1 1 43.81 0z" fill="#f49674"/><path d="m70.56 28-7-3.22a36.69 36.69 0 0 0 -30.53 0l-7.03 3.22a1.24 1.24 0 0 1 -1.76-1.14v-10.58a13.49 13.49 0 0 1 10.07-13l3.21-.85a43.63 43.63 0 0 1 22.6.14l2.24.62a13.48 13.48 0 0 1 9.91 12.94l.06 10.71a1.25 1.25 0 0 1 -1.77 1.16z" fill="#2f7c6d"/><path d="m52.57 1.16a37.56 37.56 0 0 0 -8.69.15 10.93 10.93 0 0 0 -9.5 10.88v12a36.75 36.75 0 0 1 28 .11v-12.23a10.94 10.94 0 0 0 -9.81-10.91z" fill="#4d9586"/><path d="m56.93 34.27a1 1 0 0 1 -1-1v-1a1 1 0 0 1 2 0v1a1 1 0 0 1 -1 1z" fill="#302d3d"/><path d="m59.14 28.07h-4.42a1 1 0 0 1 0-2h4.42a1 1 0 0 1 0 2z" fill="#302d3d"/><path d="m39.58 34.27a1 1 0 0 1 -1-1v-1a1 1 0 0 1 2 0v1a1 1 0 0 1 -1 1z" fill="#302d3d"/><path d="m41.79 28.07h-4.42a1 1 0 0 1 0-2h4.42a1 1 0 0 1 0 2z" fill="#302d3d"/><path d="m72.33 26.83a1.25 1.25 0 0 1 -1.77 1.17c-6.86-3.09-13.63-7.1-24.07-6.49-8.95.42-14.19 3.6-20.49 6.49a1.25 1.25 0 0 1 -1.74-.87c0-.25 0 .09 0-3.09l8.74-4.04a36.68 36.68 0 0 1 30.54 0l8.79 4z" fill="#2f5e6d"/><path d="m59.14 18.32v4.76a36.73 36.73 0 0 0 -21.77 0v-4.76a36.73 36.73 0 0 1 21.77 0z" fill="#2f7c6d"/><path d="m48.26 12a1 1 0 0 1 -1-1v-5.26a1 1 0 0 1 2 0v5.26a1 1 0 0 1 -1 1z" fill="#fff"/><path d="m50.91 9.39h-5.3a1 1 0 1 1 0-2h5.3a1 1 0 0 1 0 2z" fill="#fff"/><path d="m70 95v-30.33a2.51 2.51 0 0 1 2.16-2.54 2.41 2.41 0 0 1 2.67 2.4v-3.69a2.52 2.52 0 0 1 2.17-2.54 2.42 2.42 0 0 1 2.67 2.41v-3.6a2.43 2.43 0 0 1 4.13-1.85 2.39 2.39 0 0 1 .7 1.71v2.24a2.43 2.43 0 0 1 2.68-2.41 2.52 2.52 0 0 1 2.17 2.55v8.65l1.69.3a3.81 3.81 0 0 1 3.16 3.7v6.29a8 8 0 0 1 -2.63 5.91l-.86.78a7.93 7.93 0 0 0 -2.62 5.9v4.12" fill="#52d177"/><path d="m26 95v-30.33a2.51 2.51 0 0 0 -2.16-2.54 2.41 2.41 0 0 0 -2.67 2.4v-3.69a2.52 2.52 0 0 0 -2.17-2.54 2.42 2.42 0 0 0 -2.67 2.41v-3.6a2.43 2.43 0 0 0 -4.13-1.85 2.39 2.39 0 0 0 -.7 1.71v2.24a2.43 2.43 0 0 0 -2.69-2.41 2.52 2.52 0 0 0 -2.17 2.55v8.65l-1.64.27a3.81 3.81 0 0 0 -3.2 3.73v6.29a8 8 0 0 0 2.63 5.91l.86.78a7.93 7.93 0 0 1 2.62 5.9v4.12" fill="#52d177"/><g fill="#9df477"><path d="m5 68.27 1.64-.27v4.2l-1.64.29a3.81 3.81 0 0 0 -3.2 3.75v-4.24a3.81 3.81 0 0 1 3.2-3.73z"/><path d="m26 64.67v4.22a2.52 2.52 0 0 0 -2.16-2.54 2.41 2.41 0 0 0 -2.67 2.41v-3.7a2.51 2.51 0 0 0 -2.17-2.53 2.41 2.41 0 0 0 -2.67 2.4v-3.6a2.52 2.52 0 0 0 -2.23-2.55 2.4 2.4 0 0 0 -2.6 2.41v2.24a2.43 2.43 0 0 0 -2.69-2.43 2.53 2.53 0 0 0 -2.17 2.55v-4.2a2.52 2.52 0 0 1 2.17-2.55 2.43 2.43 0 0 1 2.68 2.41v-2.21a2.39 2.39 0 0 1 .7-1.71 2.43 2.43 0 0 1 4.13 1.85v3.6a2.42 2.42 0 0 1 2.68-2.44 2.52 2.52 0 0 1 2.18 2.54v3.69a2.41 2.41 0 0 1 2.67-2.4 2.51 2.51 0 0 1 2.15 2.54z"/><path d="m91.05 68.27-1.69-.27v4.2l1.69.29a3.81 3.81 0 0 1 3.15 3.75v-4.24a3.81 3.81 0 0 0 -3.15-3.73z"/><path d="m70 64.67v4.22a2.52 2.52 0 0 1 2.16-2.54 2.41 2.41 0 0 1 2.67 2.41v-3.7a2.51 2.51 0 0 1 2.17-2.53 2.41 2.41 0 0 1 2.67 2.4v-3.6a2.52 2.52 0 0 1 2.23-2.55 2.4 2.4 0 0 1 2.6 2.41v2.24a2.43 2.43 0 0 1 2.69-2.43 2.53 2.53 0 0 1 2.17 2.55v-4.2a2.52 2.52 0 0 0 -2.17-2.55 2.43 2.43 0 0 0 -2.68 2.41v-2.21a2.39 2.39 0 0 0 -.7-1.71 2.43 2.43 0 0 0 -4.13 1.85v3.6a2.42 2.42 0 0 0 -2.68-2.44 2.52 2.52 0 0 0 -2.18 2.54v3.69a2.41 2.41 0 0 0 -2.67-2.4 2.51 2.51 0 0 0 -2.15 2.54z"/><path d="m17.76 87.05h-2a3.37 3.37 0 0 1 -3.09-2l-1.87-4.18a1.08 1.08 0 0 1 1-1.52h5.4a2.28 2.28 0 0 1 2.24 1.91l.5 3.25a2.2 2.2 0 0 1 -2.18 2.54z"/><rect height="2" rx=".88" width="4.63" x="15.33" y="89"/><path d="m78.74 87.05h2a3.37 3.37 0 0 0 3.09-2l1.84-4.16a1.08 1.08 0 0 0 -1-1.52h-5.4a2.28 2.28 0 0 0 -2.24 1.91l-.5 3.25a2.2 2.2 0 0 0 2.21 2.52z"/><rect height="2" rx=".88" transform="matrix(-1 0 0 -1 157.71 180)" width="4.63" x="76.54" y="89"/></g></g></svg>