<svg id="Capa_1" enable-background="new 0 0 512.007 512.007" height="512" viewBox="0 0 512.007 512.007" width="512" xmlns="http://www.w3.org/2000/svg"><g><path d="m467.005 257.007h-45c-11.52 0-22.03 4.35-30 11.49-7.97-7.14-18.48-11.49-30-11.49h-199.46c-7.29 0-14.25 1.74-20.45 4.89-4.25-6.94-10.41-12.82-18.21-16.72-.103-.041.092.049-43.41-21.2-22.131-11.035-49.166-2.139-60.3 20.15l-11.91 23.81v16.73l103.74 51.34h385l15-15v-19c0-24.81-20.19-45-45-45z" fill="#6cbebe"/><path d="m512.005 302.007v19l-15 15h-241v-79h106c11.52 0 22.03 4.35 30 11.49 7.97-7.14 18.48-11.49 30-11.49h45c24.81 0 45 20.19 45 45z" fill="#599da5"/><path d="m467.005 257.007h-45c-11.52 0-22.03 4.35-30 11.49-7.97-7.14-18.48-11.49-30-11.49h-199.46c-7.29 0-14.25 1.74-20.45 4.89-4.25-6.94-10.41-12.82-18.21-16.72-.103-.041.092.049-43.41-21.2-22.131-11.035-49.166-2.139-60.3 20.15l-11.91 23.81v16.73l103.74 51.34h385l15-15v-19c0-24.81-20.19-45-45-45zm-349.83 35.12-11.91 23.81-70.11-34.69 11.85-23.7c3.602-7.204 12.46-10.545 20.25-6.65l43.26 21.14c7.36 3.71 10.35 12.71 6.66 20.09zm259.83 28.88h-240.73c13.879-27.758-.945 1.906 12.85-25.71 2.56-5.11 7.7-8.29 13.42-8.29h199.46c8.27 0 15 6.73 15 15zm105 0h-75v-19c0-8.27 6.73-15 15-15h45c8.27 0 15 6.73 15 15z" fill="#7bd8d3"/><path d="m467.005 257.007h-45c-11.52 0-22.03 4.35-30 11.49-7.97-7.14-18.48-11.49-30-11.49h-106v30h106c8.27 0 15 6.73 15 15v19h-121v15h241l15-15v-19c0-24.81-20.19-45-45-45zm15 64h-75v-19c0-8.27 6.73-15 15-15h45c8.27 0 15 6.73 15 15z" fill="#6cbebe"/><path d="m431.005 392.007c0 8.28-6.72 15-15 15h-320c-8.28 0-15-6.72-15-15s6.72-15 15-15h320c8.28 0 15 6.72 15 15z" fill="#d8e1fd"/><path d="m431.005 392.007c0 8.28-6.72 15-15 15h-160v-30h160c8.28 0 15 6.72 15 15z" fill="#c2d1f1"/><path d="m416.005 321.007h-320c-8.28 0-15 6.72-15 15v128c0 8.28 6.72 15 15 15h320c8.28 0 15-6.72 15-15v-128c0-8.28-6.72-15-15-15zm-15 128h-290v-98h290z" fill="#e9edfd"/><path d="m431.005 336.007v128c0 8.28-6.72 15-15 15h-160v-30h145v-98h-145v-30h160c8.28 0 15 6.72 15 15z" fill="#d8e1fd"/><path d="m128.005 464.007c0 17.673-14.327 33-32 33s-32-15.327-32-33 14.327-32 32-32 32 14.327 32 32z" fill="#e9edfd"/><path d="m96.005 512.007c-26.038 0-47-22.064-47-48 0-25.916 21.084-47 47-47s47 21.084 47 47c0 25.935-20.961 48-47 48zm0-65c-9.374 0-17 7.626-17 17 0 9.589 7.944 18 17 18s17-8.411 17-18c0-9.374-7.626-17-17-17z" fill="#d8e1fd"/><path d="m448.005 464.007c0 17.673-14.327 33-32 33s-32-15.327-32-33 14.327-32 32-32 32 14.327 32 32z" fill="#d8e1fd"/><path d="m416.005 512.007c-26.038 0-47-22.064-47-48 0-25.916 21.084-47 47-47s47 21.084 47 47c0 25.935-20.961 48-47 48zm0-65c-9.374 0-17 7.626-17 17 0 9.589 7.944 18 17 18s17-8.411 17-18c0-9.374-7.626-17-17-17z" fill="#c2d1f1"/><path d="m512.005 321.007v15c0 8.28-6.72 15-15 15-413.39 0-385.692.238-388.74-.48-2.11-.528 6.569 3.611-100-49.13-7.335-3.668-10.393-12.653-6.68-20.1l6.68-13.36 107.25 53.07z" fill="#595155"/><path d="m512.005 321.007v15c0 8.28-6.72 15-15 15h-241v-30z" fill="#464141"/><path d="m368.739 207.01c-5.503 0-10.8-3.039-13.428-8.295l-24-48c-3.705-7.41-.702-16.419 6.708-20.125 7.411-3.706 16.419-.702 20.124 6.708l24 48c5.025 10.049-2.385 21.712-13.404 21.712z" fill="#eebeaa"/><path d="m143.282 207.01c-11.021 0-18.424-11.673-13.404-21.711l24-48c3.705-7.411 12.718-10.412 20.124-6.708 7.41 3.705 10.413 12.715 6.708 20.125l-24 48c-2.628 5.255-7.926 8.294-13.428 8.294z" fill="#f1cdbe"/><path d="m207.993 231.01c-11.021 0-18.424-11.673-13.404-21.711l8-16c3.705-7.41 12.719-10.412 20.124-6.708 7.41 3.705 10.413 12.715 6.708 20.125l-8 16c-2.628 5.255-7.926 8.294-13.428 8.294z" fill="#f1cdbe"/><path d="m304.017 231.01c-5.503 0-10.8-3.039-13.428-8.295l-8-16c-3.705-7.41-.702-16.419 6.708-20.125 7.411-3.706 16.419-.702 20.124 6.708l8 16c5.024 10.049-2.386 21.712-13.404 21.712z" fill="#eebeaa"/><path d="m497.005 30.007h-241c-8.284 0-15-6.716-15-15s6.716-15 15-15h241c8.284 0 15 6.716 15 15s-6.716 15-15 15z" fill="#d8e1fd"/><path d="m289.465 14.497c-18.47-19.254-48.305-19.405-66.92 0-8.73 9.11-13.54 21.01-13.54 33.51v32c0 8.28 6.72 15 15 15h64c8.28 0 15-6.72 15-15v-32c0-12.5-4.81-24.4-13.54-33.51z" fill="#c2d1f1"/><path d="m303.005 48.007v32c0 8.28-6.72 15-15 15h-32v-95c25.996 0 47 22.006 47 48z" fill="#b1c2e2"/><path d="m320.005 65.007h-128c-43.56 0-79 35.44-79 79 0 8.28 6.72 15 15 15h256c8.28 0 15-6.72 15-15 0-43.56-35.44-79-79-79z" fill="#e9edfd"/><path d="m399.005 144.007c0 8.28-6.72 15-15 15h-128v-94h64c43.56 0 79 35.44 79 79z" fill="#d8e1fd"/><path d="m399.005 144.007c0 8.28-6.72 15-15 15h-15v-15c0-27.02-21.98-49-49-49h-128c-27.02 0-49 21.98-49 49v15h-15c-8.28 0-15-6.72-15-15 0-43.56 35.44-79 79-79h128c43.56 0 79 35.44 79 79z" fill="#d8e1fd"/><path d="m399.005 144.007c0 8.28-6.72 15-15 15h-15v-15c0-27.02-21.98-49-49-49h-64v-30h64c43.56 0 79 35.44 79 79z" fill="#c2d1f1"/></g></svg>