<svg id="Capa_1" enable-background="new 0 0 512.391 512.391" height="512" viewBox="0 0 512.391 512.391" width="512" xmlns="http://www.w3.org/2000/svg"><g><g><g><path d="m355.688 72.374c0-39.907-32.467-72.374-72.374-72.374s-72.374 32.467-72.374 72.374c0 32.558 21.614 60.155 51.243 69.218l-76.578 185.192-25.211 36.589c-1.725 2.503-2.648 5.471-2.648 8.511v125.507c0 8.284 6.716 15 15 15s15-6.716 15-15v-120.84l23.465-34.055c.6-.87 1.106-1.802 1.51-2.779l80.931-195.72c35.026-5.034 62.036-35.228 62.036-71.623zm-72.374 42.373c-.036 0-.072-.003-.109-.003-.002 0-.003 0-.005 0-23.312-.062-42.26-19.044-42.26-42.37 0-23.365 19.009-42.374 42.374-42.374s42.374 19.009 42.374 42.374c0 23.364-19.009 42.373-42.374 42.373z" fill="#acceff"/><path d="m244.869 363.373-25.436-36.915-88.192-185.177c29.125-9.367 50.266-36.709 50.266-68.907.001-39.907-32.466-72.374-72.373-72.374s-72.374 32.467-72.374 72.374c0 36.583 27.291 66.894 62.58 71.692l93.522 196.369c.342.717.74 1.406 1.191 2.061l23.465 34.055v120.84c0 8.284 6.716 15 15 15s15-6.716 15-15v-125.507c-.001-3.04-.924-6.008-2.649-8.511zm-178.109-290.999c0-23.365 19.009-42.374 42.374-42.374s42.373 19.009 42.373 42.374c0 23.364-19.009 42.373-42.373 42.373-23.365 0-42.374-19.009-42.374-42.373z" fill="#d5e7ff"/></g><g><path d="m283.314 144.747h-174.18c-8.284 0-15-6.716-15-15s6.716-15 15-15h174.179c8.284 0 15 6.716 15 15 .001 8.284-6.715 15-14.999 15z" fill="#d5e7ff"/><path d="m283.314 114.747h-87.09v30h87.09c8.284 0 15-6.716 15-15s-6.716-15-15-15z" fill="#acceff"/></g></g><g><g><path d="m470.921 339.672h-25.63v-89.215c0-8.284-6.716-15-15-15s-15 6.716-15 15v256.629c0 2.757 2.36 4.931 5.108 4.7 30.934-2.593 55.231-28.522 55.231-60.126v-107.28c0-2.6-2.108-4.708-4.709-4.708z" fill="#d5e7ff"/><path d="m470.921 339.672h-25.63v-89.215c0-8.227-6.625-14.899-14.83-14.991v274.594c25.978-6.73 45.169-30.316 45.169-58.399v-107.28c0-2.601-2.108-4.709-4.709-4.709z" fill="#acceff"/></g><g><path d="m445.63 285.988h-30.339c-8.284 0-15-6.716-15-15v-255.988c0-8.284 6.716-15 15-15h30.339c8.284 0 15 6.716 15 15v255.988c0 8.284-6.715 15-15 15z" fill="#374963"/><path d="m445.63 0h-15.169v285.988h15.169c8.284 0 15-6.716 15-15v-255.988c0-8.284-6.715-15-15-15z" fill="#242e4c"/></g></g></g></svg>