<?xml version="1.0" encoding="iso-8859-1"?>
<!-- Generator: Adobe Illustrator 19.0.0, SVG Export Plug-In . SVG Version: 6.00 Build 0)  -->
<svg version="1.1" id="Capa_1" xmlns="http://www.w3.org/2000/svg" xmlns:xlink="http://www.w3.org/1999/xlink" x="0px" y="0px"
	 viewBox="0 0 512 512" style="enable-background:new 0 0 512 512;" xml:space="preserve">
<path style="fill:#F2F2F2;" d="M490.667,512H21.333C9.6,512,0,502.4,0,490.667V21.333C0,9.6,9.6,0,21.333,0h469.333
	C502.4,0,512,9.6,512,21.333v469.333C512,502.4,502.4,512,490.667,512z"/>
<path style="fill:#CDD6E0;" d="M472.533,41.6H470.4v-2.133H41.6V41.6h-2.133v428.8H41.6v2.133h428.8V470.4h2.133V41.6L472.533,41.6z
	 M253.867,258.133v48h-48v-48H253.867z M204.8,252.8v-48h48v48H204.8z M259.2,258.133h48v48h-48V258.133z M259.2,252.8v-48h48v48
	H259.2z M259.2,199.467v-48h48v48H259.2z M253.867,199.467h-48v-48h48V199.467z M199.467,199.467h-48v-48h48V199.467z
	 M199.467,204.8v48h-48v-48H199.467z M199.467,258.133v48h-48v-48H199.467z M199.467,312.533v48h-48v-48H199.467z M204.8,312.533h48
	v48h-48V312.533z M259.2,312.533h48v48h-48V312.533z M312.533,312.533h48v48h-48V312.533z M312.533,307.2v-48h48v48H312.533z
	 M312.533,252.8v-48h48v48H312.533z M312.533,199.467v-48h48v48H312.533z M312.533,146.133v-48h48v48H312.533z M307.2,146.133h-48
	v-48h48V146.133z M253.867,146.133h-48v-48h48V146.133z M199.467,146.133h-48v-48h48V146.133z M146.133,146.133h-48v-48h48V146.133z
	 M146.133,151.467v48h-48v-48H146.133L146.133,151.467z M146.133,204.8v48h-48v-48H146.133z M146.133,258.133v48h-48v-48H146.133z
	 M146.133,312.533v48h-48v-48H146.133z M146.133,365.867v48h-48v-48H146.133z M151.467,365.867h48v48h-48V365.867L151.467,365.867z
	 M204.8,365.867h48v48h-48V365.867z M259.2,365.867h48v48h-48V365.867z M312.533,365.867h48v48h-48V365.867z M365.867,365.867h48v48
	h-48V365.867z M365.867,360.533v-48h48v48H365.867z M365.867,307.2v-48h48v48H365.867z M365.867,252.8v-48h48v48H365.867z
	 M365.867,199.467v-48h48v48H365.867z M365.867,146.133v-48h48v48H365.867z M365.867,92.8v-48h48v48H365.867z M360.533,92.8h-48v-48
	h48V92.8z M307.2,92.8h-48v-48h48V92.8z M253.867,92.8h-48v-48h48V92.8z M199.467,92.8h-48v-48h48V92.8z M146.133,92.8h-48v-48h48
	V92.8z M92.8,92.8h-48v-48h48V92.8z M92.8,98.133v48h-48v-48C44.8,98.133,92.8,98.133,92.8,98.133z M92.8,151.467v48h-48v-48H92.8
	L92.8,151.467z M92.8,204.8v48h-48v-48H92.8z M92.8,258.133v48h-48v-48H92.8z M92.8,312.533v48h-48v-48H92.8z M92.8,365.867v48h-48
	v-48H92.8z M92.8,419.2v48h-48v-48H92.8z M98.133,419.2h48v48h-48C98.133,467.2,98.133,419.2,98.133,419.2z M151.467,419.2h48v48
	h-48V419.2L151.467,419.2z M204.8,419.2h48v48h-48V419.2z M259.2,419.2h48v48h-48V419.2z M312.533,419.2h48v48h-48V419.2z
	 M365.867,419.2h48v48h-48V419.2z M419.2,419.2h48v48h-48V419.2z M419.2,413.867v-48h48v48H419.2z M419.2,360.533v-48h48v48H419.2z
	 M419.2,307.2v-48h48v48H419.2z M419.2,252.8v-48h48v48H419.2z M419.2,199.467v-48h48v48H419.2z M419.2,146.133v-48h48v48H419.2z
	 M419.2,92.8v-48h48v48H419.2z"/>
<g>
	<rect x="21.333" y="21.333" style="fill:#40596B;" width="41.6" height="41.6"/>
	<rect x="449.07" y="21.333" style="fill:#40596B;" width="41.6" height="41.6"/>
	<rect x="21.333" y="449.07" style="fill:#40596B;" width="41.6" height="41.6"/>
	<rect x="449.07" y="449.07" style="fill:#40596B;" width="41.6" height="41.6"/>
</g>
<path style="fill:#FF7058;" d="M343.467,413.867L323.2,360.533H188.8l-20.267,53.333H92.8L214.4,98.133h84.267l121.6,315.733h-76.8
	V413.867z M256,165.333L206.933,300.8h98.133L256,165.333z"/>
<g>
</g>
<g>
</g>
<g>
</g>
<g>
</g>
<g>
</g>
<g>
</g>
<g>
</g>
<g>
</g>
<g>
</g>
<g>
</g>
<g>
</g>
<g>
</g>
<g>
</g>
<g>
</g>
<g>
</g>
</svg>
