<svg id="Layer_1" enable-background="new 0 0 512 512" height="512" viewBox="0 0 512 512" width="512" xmlns="http://www.w3.org/2000/svg"><g><path d="m401.9185 230.2949-75.8828-27.2434-27.6998-80.9792c-.5537-1.6182-2.0747-2.7051-3.7847-2.7051h-77.0742c-1.71 0-3.231 1.0869-3.7847 2.7051l-90.7651 265.2656c-.418 1.2217-.2202 2.5703.5303 3.6211.751 1.0508 1.9629 1.6738 3.2544 1.6738h64.2612c1.71 0 3.231-1.0869 3.7847-2.7051l15.686-45.8516h91.1406l15.686 45.8516c.5537 1.6182 2.0747 2.7051 3.7847 2.7051h64.2329c1.2915 0 2.5029-.623 3.2539-1.6738s.9487-2.3994.5308-3.6211l-37.837-110.615 9.085-19.5266 41.9336-19.5098c1.4702-.6846 2.3818-2.1885 2.3086-3.8086-.0736-1.6201-1.1181-3.0351-2.6444-3.583zm-170.2857 51.8379 24.3691-71.2617 24.3916 71.2617z" fill="#4cddbf"/><path d="m77.1904 420.832h-63.1841c-7.7231 0-14.0063 6.2832-14.0063 14.0059v63.1563c0 7.7226 6.2832 14.0058 14.0063 14.0058h63.1841c7.7075 0 13.978-6.2832 13.978-14.0059v-63.1563c.0001-7.7226-6.2705-14.0058-13.978-14.0058z" fill="#3e6276"/><path d="m63.981 283.3857c4.9565 0 8.9893-4.0322 8.9893-8.9883v-36.7656c0-4.9727-4.0327-9.0176-8.9893-9.0176h-36.7652c-4.9565 0-8.9893 4.0449-8.9893 9.0176v36.7656c0 4.9561 4.0327 8.9883 8.9893 8.9883z" fill="#f8bd43"/><g fill="#3e6276"><path d="m497.9937 420.832h-63.1558c-7.7231 0-14.0063 6.2832-14.0063 14.0059v63.1563c0 7.7227 6.2832 14.0059 14.0063 14.0059h63.1558c7.7231-.0001 14.0063-6.2833 14.0063-14.006v-63.1563c0-7.7226-6.2832-14.0058-14.0063-14.0058z"/><path d="m77.1904 0h-63.1841c-7.7231 0-14.0063 6.2832-14.0063 14.0068v63.1836c0 7.708 6.2832 13.9785 14.0063 13.9785h63.1841c7.7075 0 13.978-6.2705 13.978-13.9785v-63.1836c.0001-7.7236-6.2705-14.0068-13.978-14.0068z"/><path d="m497.9937 0h-63.1558c-7.7231 0-14.0063 6.2832-14.0063 14.0068v63.1836c0 7.708 6.2832 13.9785 14.0063 13.9785h63.1558c7.7231 0 14.0063-6.2705 14.0063-13.9785v-63.1836c0-7.7236-6.2832-14.0068-14.0063-14.0068z"/></g><path d="m484.7842 283.3857c4.9722 0 9.0176-4.0322 9.0176-8.9883v-36.7656c0-4.9727-4.0454-9.0176-9.0176-9.0176h-36.7368c-4.9722 0-9.0176 4.0449-9.0176 9.0176v36.7656c0 4.9561 4.0454 8.9883 9.0176 8.9883z" fill="#f8bd43"/><path d="m274.397 439.0303h-36.7656c-4.9722 0-9.0171 4.0449-9.0171 9.0176v36.7363c0 4.9727 4.0449 9.0176 9.0171 9.0176h36.7656c4.9565 0 8.9888-4.0449 8.9888-9.0176v-36.7363c-.0001-4.9727-4.0323-9.0176-8.9888-9.0176z" fill="#f8bd43"/><path d="m274.397 18.2266h-36.7656c-4.9722 0-9.0171 4.0322-9.0171 8.9893v36.7656c0 4.957 4.0449 8.9893 9.0171 8.9893h36.7656c4.9565 0 8.9888-4.0322 8.9888-8.9893v-36.7657c-.0001-4.957-4.0323-8.9892-8.9888-8.9892z" fill="#f8bd43"/><path d="m77.1904 0h-4.4579c2.0121 2.427 3.2247 5.5419 3.2247 8.9364v63.1836c0 7.708-6.2705 13.9785-13.978 13.9785h-58.7573c2.5712 3.0951 6.4506 5.0704 10.7844 5.0704h63.1841c7.7075 0 13.978-6.2705 13.978-13.9785v-63.1836c.0001-7.7236-6.2705-14.0068-13.978-14.0068z" fill="#395c6b"/><path d="m72.9702 237.6318c0-4.9727-4.0327-9.0176-8.9893-9.0176h-7.1414c.5828 1.1941.9194 2.5303.9194 3.9471v36.7656c0 4.9561-4.0327 8.9883-8.9893 8.9883h-29.6315c1.4596 2.9958 4.527 5.0704 8.0778 5.0704h36.7651c4.9565 0 8.9893-4.0322 8.9893-8.9883v-36.7655z" fill="#efb245"/><path d="m77.1904 420.832h-4.4578c2.012 2.4268 3.2245 5.5415 3.2245 8.9354v63.1563c0 7.7227-6.2705 14.0059-13.978 14.0059h-58.748c2.5712 3.0951 6.4463 5.0704 10.7752 5.0704h63.1841c7.7075 0 13.978-6.2832 13.978-14.0059v-63.1563c.0001-7.7226-6.2705-14.0058-13.978-14.0058z" fill="#395c6b"/><path d="m493.8018 237.6318c0-4.9727-4.0454-9.0176-9.0176-9.0176h-7.1159c.5847 1.1941.9222 2.5303.9222 3.9471v36.7656c0 4.9561-4.0454 8.9883-9.0176 8.9883h-29.6288c1.4642 2.9958 4.5413 5.0704 8.1032 5.0704h36.7368c4.9722 0 9.0176-4.0322 9.0176-8.9883v-36.7655z" fill="#efb245"/><path d="m497.9937 420.832h-4.436c2.0161 2.4268 3.2311 5.5415 3.2311 8.9354v63.1563c0 7.7227-6.2832 14.0059-14.0063 14.0059h-58.7198c2.5712 3.0951 6.4464 5.0704 10.7753 5.0704h63.1558c7.723 0 14.0062-6.2832 14.0062-14.0059v-63.1563c0-7.7226-6.2832-14.0058-14.0063-14.0058z" fill="#395c6b"/><path d="m274.397 439.0303h-7.1417c.5828 1.1941.9193 2.5303.9193 3.9471v36.7363c0 4.9727-4.0322 9.0176-8.9888 9.0176h-29.6494c1.4673 2.9968 4.5395 5.0704 8.095 5.0704h36.7656c4.9565 0 8.9888-4.0449 8.9888-9.0176v-36.7363c-.0001-4.9726-4.0323-9.0175-8.9888-9.0175z" fill="#efb245"/><path d="m497.9937 0h-4.4362c2.0161 2.427 3.2313 5.5419 3.2313 8.9364v63.1836c0 7.708-6.2832 13.9785-14.0063 13.9785h-58.7289c2.5712 3.0951 6.4506 5.0704 10.7844 5.0704h63.1558c7.7231 0 14.0063-6.2705 14.0063-13.9785v-63.1836c-.0001-7.7236-6.2833-14.0068-14.0064-14.0068z" fill="#395c6b"/><path d="m274.397 18.2266h-7.134c.5779 1.1863.9116 2.5127.9116 3.9188v36.7656c0 4.957-4.0322 8.9893-8.9888 8.9893h-29.657c1.4641 2.996 4.5409 5.0704 8.1027 5.0704h36.7656c4.9565 0 8.9888-4.0322 8.9888-8.9893v-36.7656c-.0002-4.957-4.0324-8.9892-8.9889-8.9892z" fill="#efb245"/><g fill="#8e8e8e"><path d="m41.585 91.169h8v137.445h-8z"/><path d="m91.169 41.584h137.446v8h-137.446z"/><path d="m462.416 91.169h8v137.445h-8z"/><path d="m283.386 41.584h137.446v8h-137.446z"/><path d="m91.169 462.416h137.446v8h-137.446z"/><path d="m462.416 283.386h8v137.446h-8z"/><path d="m41.585 283.386h8v137.446h-8z"/><path d="m283.386 462.416h137.446v8h-137.446z"/></g><path d="m401.9185 230.2949-98.9292-35.5176c-1.4561-.5225-3.0854-.1592-4.1807.9365-1.0947 1.0957-1.459 2.7236-.9351 4.1807l35.5464 98.9004c.5483 1.5264 1.9634 2.5703 3.5835 2.6436.0605.0029.1211.0039.1816.0039 1.5493 0 2.9673-.8975 3.6255-2.3125l19.5103-41.9336 41.9336-19.5098c1.4702-.6846 2.3818-2.1885 2.3086-3.8086-.0737-1.6201-1.1182-3.0351-2.6445-3.583z" fill="#3e6276"/><path d="m351.2358 276.7229-10.4252 22.407c-.6582 1.415-2.0762 2.3125-3.6255 2.3125-.0605 0-.1211-.001-.1816-.0039-1.6201-.0732-3.0352-1.1172-3.5835-2.6436l-35.5464-98.9004c-.5239-1.457-.1597-3.085.9351-4.1807 1.0952-1.0957 2.7246-1.459 4.1807-.9365l23.0464 8.2742-27.6998-80.9792c-.5537-1.6182-2.0747-2.7051-3.7847-2.7051h-77.0742c-1.71 0-3.231 1.0869-3.7847 2.7051l-2.1973 6.4216h63.6704c1.71 0 3.231 1.0869 3.7847 2.7051l19.1159 55.8845c-1.8357.5698-3.5187 1.5775-4.9167 2.9761-3.2671 3.2695-4.3677 8.1934-2.8042 12.541l35.5459 98.8994c1.6514 4.5967 5.8716 7.71 10.7275 7.9297.1885.0088.3774.0127.5664.0127.8967 0 1.7787-.1036 2.6334-.2975l28.5579 83.4879h16.9118c1.2915 0 2.5029-.623 3.2539-1.6738s.9487-2.3994.5308-3.6211z" fill="#4ad3b3"/><path d="m404.563 233.8779c-.0737-1.6201-1.1182-3.0352-2.6445-3.583l-98.9292-35.5176c-1.4561-.5225-3.0854-.1592-4.1807.9365l61.5122 61.4824 41.9336-19.5098c1.4702-.6844 2.3818-2.1884 2.3086-3.8085z" fill="#395c6b"/></g></svg>