<svg height="512" viewBox="0 0 64 64" width="512" xmlns="http://www.w3.org/2000/svg"><g id="Layer_31" data-name="Layer 31"><path d="m11 6h42v56h-42z" fill="#696a6c"/><path d="m15 14h34v43h-34z" fill="#e0e0e0"/><path d="m15 14v39h26a5 5 0 0 0 5-5v-34z" fill="#eee"/><rect fill="#fff" height="27" rx="5.5" width="11" x="22" y="20"/><path d="m15 22h34v14h-34z" fill="#e78438"/><path d="m15 22v11h28a3 3 0 0 0 3-3v-8z" fill="#eeab46"/><circle cx="21" cy="30" fill="#f3c14f" r="4"/><circle cx="25.5" cy="25.5" fill="#f3c14f" r="1.5"/><path d="m22 2h20v8h-20z" fill="#eeab46"/><path d="m22 2v6h15a3 3 0 0 0 3-3v-3z" fill="#f8d859"/><rect fill="#fded72" height="3" rx="1.5" width="7" x="24" y="3"/><path d="m32 19a7.008 7.008 0 0 1 -7-7v-2h2v2a5 5 0 0 0 10 0v-2h2v2a7.008 7.008 0 0 1 -7 7z" fill="#bdbdbd"/><path d="m25 5h2v2h-2z" fill="#eeab46"/><path d="m37 5h2v2h-2z" fill="#eeab46"/><path d="m31 42a5 5 0 1 0 5 5h-5z" fill="#e78438"/><path d="m39 44a5 5 0 0 0 -5-5v5z" fill="#eeab46"/><g fill="#fff"><path d="m24.5 24h-1.5a1 1 0 0 0 -1 1v9h2v-3h.5a3.5 3.5 0 0 0 0-7zm0 5h-.5v-3h.5a1.5 1.5 0 0 1 0 3z"/><path d="m31.5 24h-1.5a1 1 0 0 0 -1 1v9h2v-3h.5a3.5 3.5 0 0 0 0-7zm0 5h-.5v-3h.5a1.5 1.5 0 0 1 0 3z"/><path d="m42 32h2v2h-2z"/><path d="m42 26v-2h-6v2h2v8h2v-8z"/></g></g></svg>